<svg width="869" height="212" viewBox="0 0 869 212" fill="none" xmlns="http://www.w3.org/2000/svg">
<path d="M186 82C186 65.4315 199.431 52 216 52C232.569 52 246 65.4315 246 82V182C246 198.569 232.569 212 216 212C199.431 212 186 198.569 186 182V82Z" fill="#FFC961"/>
<rect x="93" width="60" height="160" rx="30" fill="#FFC961"/>
<rect y="52" width="60" height="160" rx="30" fill="#FFC961"/>
<path d="M347.838 189.625C335.238 189.625 324.504 186.883 315.638 181.4C306.771 175.858 299.975 168.158 295.25 158.3C290.583 148.442 288.25 137.008 288.25 124C288.25 110.992 290.583 99.5583 295.25 89.7C299.975 79.8417 306.771 72.1708 315.638 66.6875C324.504 61.1458 335.238 58.375 347.838 58.375C362.363 58.375 374.379 62.05 383.887 69.4C393.454 76.75 400.104 86.6375 403.838 99.0625L385.288 104.05C382.838 95.2417 378.463 88.3292 372.163 83.3125C365.921 78.2958 357.813 75.7875 347.838 75.7875C338.913 75.7875 331.475 77.8 325.525 81.825C319.575 85.85 315.083 91.4792 312.05 98.7125C309.075 105.946 307.588 114.375 307.588 124C307.529 133.625 308.988 142.054 311.963 149.287C314.996 156.521 319.488 162.15 325.438 166.175C331.446 170.2 338.913 172.212 347.838 172.212C357.813 172.212 365.921 169.704 372.163 164.687C378.463 159.612 382.838 152.7 385.288 143.95L403.838 148.937C400.104 161.362 393.454 171.25 383.887 178.6C374.379 185.95 362.363 189.625 347.838 189.625ZM464.995 189.625C455.603 189.625 447.349 187.583 440.232 183.5C433.174 179.358 427.661 173.612 423.695 166.262C419.786 158.854 417.832 150.279 417.832 140.537C417.832 130.212 419.757 121.258 423.607 113.675C427.515 106.092 432.94 100.229 439.882 96.0875C446.824 91.9458 454.903 89.875 464.12 89.875C473.745 89.875 481.94 92.1208 488.707 96.6125C495.474 101.046 500.52 107.375 503.845 115.6C507.228 123.825 508.57 133.596 507.87 144.912H489.582V138.262C489.465 127.296 487.365 119.187 483.282 113.937C479.257 108.687 473.103 106.062 464.82 106.062C455.661 106.062 448.778 108.95 444.17 114.725C439.561 120.5 437.257 128.842 437.257 139.75C437.257 150.133 439.561 158.183 444.17 163.9C448.778 169.558 455.428 172.387 464.12 172.387C469.836 172.387 474.765 171.104 478.907 168.537C483.107 165.912 486.374 162.179 488.707 157.337L506.645 163.025C502.97 171.483 497.399 178.046 489.932 182.712C482.465 187.321 474.153 189.625 464.995 189.625ZM431.307 144.912V130.65H498.77V144.912H431.307ZM552.479 189.625C545.479 189.625 539.617 188.342 534.892 185.775C530.167 183.15 526.579 179.708 524.129 175.45C521.738 171.133 520.542 166.408 520.542 161.275C520.542 156.492 521.388 152.292 523.079 148.675C524.771 145.058 527.279 141.996 530.604 139.487C533.929 136.921 538.013 134.85 542.854 133.275C547.054 132.05 551.809 130.971 557.117 130.037C562.425 129.104 567.996 128.229 573.829 127.412C579.721 126.596 585.554 125.779 591.329 124.962L584.679 128.637C584.796 121.229 583.221 115.746 579.954 112.187C576.746 108.571 571.204 106.762 563.329 106.762C558.371 106.762 553.821 107.929 549.679 110.262C545.538 112.537 542.65 116.329 541.017 121.637L523.954 116.387C526.288 108.279 530.721 101.833 537.254 97.05C543.846 92.2667 552.596 89.875 563.504 89.875C571.963 89.875 579.313 91.3333 585.554 94.25C591.854 97.1083 596.463 101.658 599.379 107.9C600.896 110.992 601.829 114.258 602.179 117.7C602.529 121.142 602.704 124.846 602.704 128.812V187H586.517V165.387L589.667 168.187C585.759 175.421 580.771 180.817 574.704 184.375C568.696 187.875 561.288 189.625 552.479 189.625ZM555.717 174.662C560.909 174.662 565.371 173.758 569.104 171.95C572.838 170.083 575.842 167.721 578.117 164.862C580.392 162.004 581.879 159.029 582.579 155.937C583.571 153.137 584.125 149.987 584.242 146.487C584.417 142.987 584.504 140.187 584.504 138.087L590.454 140.275C584.679 141.15 579.429 141.937 574.704 142.637C569.979 143.337 565.692 144.037 561.842 144.737C558.05 145.379 554.667 146.167 551.692 147.1C549.184 147.975 546.938 149.025 544.954 150.25C543.029 151.475 541.484 152.962 540.317 154.712C539.209 156.462 538.654 158.592 538.654 161.1C538.654 163.55 539.267 165.825 540.492 167.925C541.717 169.967 543.584 171.6 546.092 172.825C548.6 174.05 551.809 174.662 555.717 174.662ZM625.426 187V92.5H641.701V115.425L639.426 112.45C640.592 109.417 642.109 106.646 643.976 104.137C645.842 101.571 648.001 99.4708 650.451 97.8375C652.842 96.0875 655.497 94.7458 658.413 93.8125C661.388 92.8208 664.422 92.2375 667.513 92.0625C670.605 91.8292 673.58 91.975 676.438 92.5V109.65C673.347 108.833 669.905 108.6 666.113 108.95C662.38 109.3 658.938 110.496 655.788 112.537C652.813 114.462 650.451 116.796 648.701 119.537C647.009 122.279 645.784 125.342 645.026 128.725C644.267 132.05 643.888 135.579 643.888 139.312V187H625.426ZM759.427 187V140.537C759.427 136.862 759.106 133.1 758.464 129.25C757.881 125.342 756.714 121.725 754.964 118.4C753.272 115.075 750.852 112.392 747.702 110.35C744.61 108.308 740.556 107.287 735.539 107.287C732.272 107.287 729.181 107.842 726.264 108.95C723.347 110 720.781 111.721 718.564 114.112C716.406 116.504 714.685 119.654 713.402 123.562C712.177 127.471 711.564 132.225 711.564 137.825L700.189 133.537C700.189 124.962 701.793 117.408 705.002 110.875C708.21 104.283 712.818 99.15 718.827 95.475C724.835 91.8 732.097 89.9625 740.614 89.9625C747.147 89.9625 752.631 91.0125 757.064 93.1125C761.497 95.2125 765.085 97.9833 767.827 101.425C770.627 104.808 772.756 108.512 774.214 112.537C775.672 116.562 776.664 120.5 777.189 124.35C777.714 128.2 777.977 131.583 777.977 134.5V187H759.427ZM693.014 187V92.5H709.377V119.8H711.564V187H693.014Z" fill="black"/>
</svg>
