<svg width="889" height="222" viewBox="0 0 889 222" fill="none" xmlns="http://www.w3.org/2000/svg">
<path d="M186 82C186 65.4315 199.431 52 216 52C232.569 52 246 65.4315 246 82V182C246 198.569 232.569 212 216 212C199.431 212 186 198.569 186 182V82Z" fill="black"/>
<rect x="93" width="60" height="160" rx="30" fill="#373737"/>
<rect y="52" width="60" height="160" rx="30" fill="#5B5B5B"/>
<path d="M376.15 170.75C366.817 170.75 358.125 169.233 350.075 166.2C342.142 163.05 335.2 158.675 329.25 153.075C323.417 147.358 318.867 140.65 315.6 132.95C312.333 125.25 310.7 116.85 310.7 107.75C310.7 98.65 312.333 90.25 315.6 82.55C318.867 74.85 323.475 68.2 329.425 62.6C335.375 56.8833 342.317 52.5083 350.25 49.475C358.183 46.325 366.875 44.75 376.325 44.75C386.358 44.75 395.517 46.5 403.8 50C412.083 53.3833 419.083 58.4583 424.8 65.225L410.1 79.05C405.667 74.2667 400.708 70.7083 395.225 68.375C389.742 65.925 383.792 64.7 377.375 64.7C370.958 64.7 365.067 65.75 359.7 67.85C354.45 69.95 349.842 72.925 345.875 76.775C342.025 80.625 338.992 85.175 336.775 90.425C334.675 95.675 333.625 101.45 333.625 107.75C333.625 114.05 334.675 119.825 336.775 125.075C338.992 130.325 342.025 134.875 345.875 138.725C349.842 142.575 354.45 145.55 359.7 147.65C365.067 149.75 370.958 150.8 377.375 150.8C383.792 150.8 389.742 149.633 395.225 147.3C400.708 144.85 405.667 141.175 410.1 136.275L424.8 150.275C419.083 156.925 412.083 162 403.8 165.5C395.517 169 386.3 170.75 376.15 170.75ZM484.835 170.225C474.451 170.225 465.351 168.183 457.535 164.1C449.835 159.9 443.826 154.183 439.51 146.95C435.31 139.717 433.21 131.492 433.21 122.275C433.21 112.942 435.251 104.717 439.335 97.6C443.535 90.3667 449.251 84.7083 456.485 80.625C463.835 76.5417 472.176 74.5 481.51 74.5C490.61 74.5 498.718 76.4833 505.835 80.45C512.951 84.4167 518.551 90.0167 522.635 97.25C526.718 104.483 528.76 113 528.76 122.8C528.76 123.733 528.701 124.783 528.585 125.95C528.585 127.117 528.526 128.225 528.41 129.275H450.535V114.75H516.86L508.285 119.3C508.401 113.933 507.293 109.208 504.96 105.125C502.626 101.042 499.418 97.8333 495.335 95.5C491.368 93.1667 486.76 92 481.51 92C476.143 92 471.418 93.1667 467.335 95.5C463.368 97.8333 460.218 101.1 457.885 105.3C455.668 109.383 454.56 114.225 454.56 119.825V123.325C454.56 128.925 455.843 133.883 458.41 138.2C460.976 142.517 464.593 145.842 469.26 148.175C473.926 150.508 479.293 151.675 485.36 151.675C490.61 151.675 495.335 150.858 499.535 149.225C503.735 147.592 507.468 145.025 510.735 141.525L522.46 155C518.26 159.9 512.951 163.692 506.535 166.375C500.235 168.942 493.001 170.225 484.835 170.225ZM604.783 169V150.1L603.558 146.075V113C603.558 106.583 601.633 101.625 597.783 98.125C593.933 94.5083 588.1 92.7 580.283 92.7C575.033 92.7 569.842 93.5167 564.708 95.15C559.692 96.7833 555.433 99.0583 551.933 101.975L543.358 86.05C548.375 82.2 554.325 79.3417 561.208 77.475C568.208 75.4917 575.442 74.5 582.908 74.5C596.442 74.5 606.883 77.7667 614.233 84.3C621.7 90.7167 625.433 100.692 625.433 114.225V169H604.783ZM575.383 170.225C568.383 170.225 562.258 169.058 557.008 166.725C551.758 164.275 547.675 160.95 544.758 156.75C541.958 152.433 540.558 147.592 540.558 142.225C540.558 136.975 541.783 132.25 544.233 128.05C546.8 123.85 550.942 120.525 556.658 118.075C562.375 115.625 569.958 114.4 579.408 114.4H606.533V128.925H580.983C573.517 128.925 568.5 130.15 565.933 132.6C563.367 134.933 562.083 137.85 562.083 141.35C562.083 145.317 563.658 148.467 566.808 150.8C569.958 153.133 574.333 154.3 579.933 154.3C585.3 154.3 590.083 153.075 594.283 150.625C598.6 148.175 601.692 144.558 603.558 139.775L607.233 152.9C605.133 158.383 601.342 162.642 595.858 165.675C590.492 168.708 583.667 170.225 575.383 170.225ZM653.507 169V75.55H674.332V101.275L671.882 93.75C674.682 87.45 679.057 82.6667 685.007 79.4C691.074 76.1333 698.599 74.5 707.582 74.5V95.325C706.649 95.0917 705.774 94.975 704.957 94.975C704.141 94.8583 703.324 94.8 702.507 94.8C694.224 94.8 687.632 97.25 682.732 102.15C677.832 106.933 675.382 114.108 675.382 123.675V169H653.507ZM779.164 74.5C786.631 74.5 793.281 75.9583 799.114 78.875C805.064 81.7917 809.731 86.2833 813.114 92.35C816.497 98.3 818.189 106 818.189 115.45V169H796.314V118.25C796.314 109.967 794.331 103.783 790.364 99.7C786.514 95.6167 781.089 93.575 774.089 93.575C768.956 93.575 764.406 94.625 760.439 96.725C756.472 98.825 753.381 101.975 751.164 106.175C749.064 110.258 748.014 115.45 748.014 121.75V169H726.139V75.55H746.964V100.75L743.289 93.05C746.556 87.1 751.281 82.55 757.464 79.4C763.764 76.1333 770.997 74.5 779.164 74.5Z" fill="black"/>
<path d="M329.314 212.21C327.13 212.21 325.17 211.734 323.434 210.782C321.726 209.802 320.382 208.472 319.402 206.792C318.422 205.084 317.932 203.138 317.932 200.954C317.932 198.742 318.422 196.796 319.402 195.116C320.382 193.436 321.726 192.12 323.434 191.168C325.17 190.216 327.13 189.74 329.314 189.74C331.19 189.74 332.884 190.104 334.396 190.832C335.908 191.56 337.098 192.652 337.966 194.108L335.74 195.62C334.984 194.5 334.046 193.674 332.926 193.142C331.806 192.61 330.588 192.344 329.272 192.344C327.704 192.344 326.29 192.708 325.03 193.436C323.77 194.136 322.776 195.13 322.048 196.418C321.32 197.706 320.956 199.218 320.956 200.954C320.956 202.69 321.32 204.202 322.048 205.49C322.776 206.778 323.77 207.786 325.03 208.514C326.29 209.214 327.704 209.564 329.272 209.564C330.588 209.564 331.806 209.298 332.926 208.766C334.046 208.234 334.984 207.422 335.74 206.33L337.966 207.842C337.098 209.27 335.908 210.362 334.396 211.118C332.884 211.846 331.19 212.21 329.314 212.21ZM343.824 212V189.95H346.68V195.956L346.386 194.906C347.002 193.226 348.038 191.952 349.494 191.084C350.95 190.188 352.756 189.74 354.912 189.74V192.638C354.8 192.638 354.688 192.638 354.576 192.638C354.464 192.61 354.352 192.596 354.24 192.596C351.916 192.596 350.096 193.31 348.78 194.738C347.464 196.138 346.806 198.14 346.806 200.744V212H343.824ZM369.514 212.21C367.218 212.21 365.202 211.734 363.466 210.782C361.73 209.802 360.372 208.472 359.392 206.792C358.412 205.084 357.922 203.138 357.922 200.954C357.922 198.77 358.384 196.838 359.308 195.158C360.26 193.478 361.548 192.162 363.172 191.21C364.824 190.23 366.672 189.74 368.716 189.74C370.788 189.74 372.622 190.216 374.218 191.168C375.842 192.092 377.116 193.408 378.04 195.116C378.964 196.796 379.426 198.742 379.426 200.954C379.426 201.094 379.412 201.248 379.384 201.416C379.384 201.556 379.384 201.71 379.384 201.878H360.19V199.652H377.788L376.612 200.534C376.612 198.938 376.262 197.524 375.562 196.292C374.89 195.032 373.966 194.052 372.79 193.352C371.614 192.652 370.256 192.302 368.716 192.302C367.204 192.302 365.846 192.652 364.642 193.352C363.438 194.052 362.5 195.032 361.828 196.292C361.156 197.552 360.82 198.994 360.82 200.618V201.08C360.82 202.76 361.184 204.244 361.912 205.532C362.668 206.792 363.704 207.786 365.02 208.514C366.364 209.214 367.89 209.564 369.598 209.564C370.942 209.564 372.188 209.326 373.336 208.85C374.512 208.374 375.52 207.646 376.36 206.666L378.04 208.598C377.06 209.774 375.828 210.67 374.344 211.286C372.888 211.902 371.278 212.21 369.514 212.21ZM398.699 212V207.128L398.573 206.33V198.182C398.573 196.306 398.041 194.864 396.977 193.856C395.941 192.848 394.387 192.344 392.315 192.344C390.887 192.344 389.529 192.582 388.241 193.058C386.953 193.534 385.861 194.164 384.965 194.948L383.621 192.722C384.741 191.77 386.085 191.042 387.653 190.538C389.221 190.006 390.873 189.74 392.609 189.74C395.465 189.74 397.663 190.454 399.203 191.882C400.771 193.282 401.555 195.424 401.555 198.308V212H398.699ZM391.097 212.21C389.445 212.21 388.003 211.944 386.771 211.412C385.567 210.852 384.643 210.096 383.999 209.144C383.355 208.164 383.033 207.044 383.033 205.784C383.033 204.636 383.299 203.6 383.831 202.676C384.391 201.724 385.287 200.968 386.519 200.408C387.779 199.82 389.459 199.526 391.559 199.526H399.161V201.752H391.643C389.515 201.752 388.031 202.13 387.191 202.886C386.379 203.642 385.973 204.58 385.973 205.7C385.973 206.96 386.463 207.968 387.443 208.724C388.423 209.48 389.795 209.858 391.559 209.858C393.239 209.858 394.681 209.48 395.885 208.724C397.117 207.94 398.013 206.82 398.573 205.364L399.245 207.422C398.685 208.878 397.705 210.04 396.305 210.908C394.933 211.776 393.197 212.21 391.097 212.21ZM416.626 212.21C414.554 212.21 412.958 211.65 411.838 210.53C410.718 209.41 410.158 207.828 410.158 205.784V185.078H413.14V205.616C413.14 206.904 413.462 207.898 414.106 208.598C414.778 209.298 415.73 209.648 416.962 209.648C418.278 209.648 419.37 209.27 420.238 208.514L421.288 210.656C420.7 211.188 419.986 211.58 419.146 211.832C418.334 212.084 417.494 212.21 416.626 212.21ZM406.21 192.428V189.95H419.86V192.428H406.21ZM426.717 212V189.95H429.699V212H426.717ZM428.229 185.078C427.613 185.078 427.095 184.868 426.675 184.448C426.255 184.028 426.045 183.524 426.045 182.936C426.045 182.348 426.255 181.858 426.675 181.466C427.095 181.046 427.613 180.836 428.229 180.836C428.845 180.836 429.363 181.032 429.783 181.424C430.203 181.816 430.413 182.306 430.413 182.894C430.413 183.51 430.203 184.028 429.783 184.448C429.391 184.868 428.873 185.078 428.229 185.078ZM443.666 212L433.88 189.95H436.988L445.976 210.404H444.506L453.62 189.95H456.56L446.732 212H443.666ZM469.51 212.21C467.214 212.21 465.198 211.734 463.462 210.782C461.726 209.802 460.368 208.472 459.388 206.792C458.408 205.084 457.918 203.138 457.918 200.954C457.918 198.77 458.38 196.838 459.304 195.158C460.256 193.478 461.544 192.162 463.168 191.21C464.82 190.23 466.668 189.74 468.712 189.74C470.784 189.74 472.618 190.216 474.214 191.168C475.838 192.092 477.112 193.408 478.036 195.116C478.96 196.796 479.422 198.742 479.422 200.954C479.422 201.094 479.408 201.248 479.38 201.416C479.38 201.556 479.38 201.71 479.38 201.878H460.186V199.652H477.784L476.608 200.534C476.608 198.938 476.258 197.524 475.558 196.292C474.886 195.032 473.962 194.052 472.786 193.352C471.61 192.652 470.252 192.302 468.712 192.302C467.2 192.302 465.842 192.652 464.638 193.352C463.434 194.052 462.496 195.032 461.824 196.292C461.152 197.552 460.816 198.994 460.816 200.618V201.08C460.816 202.76 461.18 204.244 461.908 205.532C462.664 206.792 463.7 207.786 465.016 208.514C466.36 209.214 467.886 209.564 469.594 209.564C470.938 209.564 472.184 209.326 473.332 208.85C474.508 208.374 475.516 207.646 476.356 206.666L478.036 208.598C477.056 209.774 475.824 210.67 474.34 211.286C472.884 211.902 471.274 212.21 469.51 212.21ZM491.414 212.21C489.594 212.21 487.872 211.958 486.248 211.454C484.624 210.922 483.35 210.264 482.426 209.48L483.77 207.128C484.666 207.8 485.814 208.388 487.214 208.892C488.614 209.368 490.084 209.606 491.624 209.606C493.724 209.606 495.236 209.284 496.16 208.64C497.084 207.968 497.546 207.086 497.546 205.994C497.546 205.182 497.28 204.552 496.748 204.104C496.244 203.628 495.572 203.278 494.732 203.054C493.892 202.802 492.954 202.592 491.918 202.424C490.882 202.256 489.846 202.06 488.81 201.836C487.802 201.612 486.878 201.29 486.038 200.87C485.198 200.422 484.512 199.82 483.98 199.064C483.476 198.308 483.224 197.3 483.224 196.04C483.224 194.836 483.56 193.758 484.232 192.806C484.904 191.854 485.884 191.112 487.172 190.58C488.488 190.02 490.084 189.74 491.96 189.74C493.388 189.74 494.816 189.936 496.244 190.328C497.672 190.692 498.848 191.182 499.772 191.798L498.47 194.192C497.49 193.52 496.44 193.044 495.32 192.764C494.2 192.456 493.08 192.302 491.96 192.302C489.972 192.302 488.502 192.652 487.55 193.352C486.626 194.024 486.164 194.892 486.164 195.956C486.164 196.796 486.416 197.454 486.92 197.93C487.452 198.406 488.138 198.784 488.978 199.064C489.846 199.316 490.784 199.526 491.792 199.694C492.828 199.862 493.85 200.072 494.858 200.324C495.894 200.548 496.832 200.87 497.672 201.29C498.54 201.682 499.226 202.256 499.73 203.012C500.262 203.74 500.528 204.706 500.528 205.91C500.528 207.198 500.164 208.318 499.436 209.27C498.736 210.194 497.7 210.922 496.328 211.454C494.984 211.958 493.346 212.21 491.414 212.21Z" fill="#494949"/>
</svg>
