<svg width="865" height="212" viewBox="0 0 865 212" fill="none" xmlns="http://www.w3.org/2000/svg">
<path d="M186 82C186 65.4315 199.431 52 216 52V52C232.569 52 246 65.4315 246 82V182C246 198.569 232.569 212 216 212V212C199.431 212 186 198.569 186 182V82Z" fill="#FFC961"/>
<rect x="93" width="60" height="160" rx="30" fill="#FFC961"/>
<rect y="52" width="60" height="160" rx="30" fill="#FFC961"/>
<path d="M352.15 186.75C342.817 186.75 334.125 185.233 326.075 182.2C318.142 179.05 311.2 174.675 305.25 169.075C299.417 163.358 294.867 156.65 291.6 148.95C288.333 141.25 286.7 132.85 286.7 123.75C286.7 114.65 288.333 106.25 291.6 98.55C294.867 90.85 299.475 84.2 305.425 78.6C311.375 72.8833 318.317 68.5083 326.25 65.475C334.183 62.325 342.875 60.75 352.325 60.75C362.358 60.75 371.517 62.5 379.8 66C388.083 69.3833 395.083 74.4583 400.8 81.225L386.1 95.05C381.667 90.2667 376.708 86.7083 371.225 84.375C365.742 81.925 359.792 80.7 353.375 80.7C346.958 80.7 341.067 81.75 335.7 83.85C330.45 85.95 325.842 88.925 321.875 92.775C318.025 96.625 314.992 101.175 312.775 106.425C310.675 111.675 309.625 117.45 309.625 123.75C309.625 130.05 310.675 135.825 312.775 141.075C314.992 146.325 318.025 150.875 321.875 154.725C325.842 158.575 330.45 161.55 335.7 163.65C341.067 165.75 346.958 166.8 353.375 166.8C359.792 166.8 365.742 165.633 371.225 163.3C376.708 160.85 381.667 157.175 386.1 152.275L400.8 166.275C395.083 172.925 388.083 178 379.8 181.5C371.517 185 362.3 186.75 352.15 186.75ZM460.835 186.225C450.451 186.225 441.351 184.183 433.535 180.1C425.835 175.9 419.826 170.183 415.51 162.95C411.31 155.717 409.21 147.492 409.21 138.275C409.21 128.942 411.251 120.717 415.335 113.6C419.535 106.367 425.251 100.708 432.485 96.625C439.835 92.5417 448.176 90.5 457.51 90.5C466.61 90.5 474.718 92.4833 481.835 96.45C488.951 100.417 494.551 106.017 498.635 113.25C502.718 120.483 504.76 129 504.76 138.8C504.76 139.733 504.701 140.783 504.585 141.95C504.585 143.117 504.526 144.225 504.41 145.275H426.535V130.75H492.86L484.285 135.3C484.401 129.933 483.293 125.208 480.96 121.125C478.626 117.042 475.418 113.833 471.335 111.5C467.368 109.167 462.76 108 457.51 108C452.143 108 447.418 109.167 443.335 111.5C439.368 113.833 436.218 117.1 433.885 121.3C431.668 125.383 430.56 130.225 430.56 135.825V139.325C430.56 144.925 431.843 149.883 434.41 154.2C436.976 158.517 440.593 161.842 445.26 164.175C449.926 166.508 455.293 167.675 461.36 167.675C466.61 167.675 471.335 166.858 475.535 165.225C479.735 163.592 483.468 161.025 486.735 157.525L498.46 171C494.26 175.9 488.951 179.692 482.535 182.375C476.235 184.942 469.001 186.225 460.835 186.225ZM580.783 185V166.1L579.558 162.075V129C579.558 122.583 577.633 117.625 573.783 114.125C569.933 110.508 564.1 108.7 556.283 108.7C551.033 108.7 545.842 109.517 540.708 111.15C535.692 112.783 531.433 115.058 527.933 117.975L519.358 102.05C524.375 98.2 530.325 95.3417 537.208 93.475C544.208 91.4917 551.442 90.5 558.908 90.5C572.442 90.5 582.883 93.7667 590.233 100.3C597.7 106.717 601.433 116.692 601.433 130.225V185H580.783ZM551.383 186.225C544.383 186.225 538.258 185.058 533.008 182.725C527.758 180.275 523.675 176.95 520.758 172.75C517.958 168.433 516.558 163.592 516.558 158.225C516.558 152.975 517.783 148.25 520.233 144.05C522.8 139.85 526.942 136.525 532.658 134.075C538.375 131.625 545.958 130.4 555.408 130.4H582.533V144.925H556.983C549.517 144.925 544.5 146.15 541.933 148.6C539.367 150.933 538.083 153.85 538.083 157.35C538.083 161.317 539.658 164.467 542.808 166.8C545.958 169.133 550.333 170.3 555.933 170.3C561.3 170.3 566.083 169.075 570.283 166.625C574.6 164.175 577.692 160.558 579.558 155.775L583.233 168.9C581.133 174.383 577.342 178.642 571.858 181.675C566.492 184.708 559.667 186.225 551.383 186.225ZM629.507 185V91.55H650.332V117.275L647.882 109.75C650.682 103.45 655.057 98.6667 661.007 95.4C667.074 92.1333 674.599 90.5 683.582 90.5V111.325C682.649 111.092 681.774 110.975 680.957 110.975C680.141 110.858 679.324 110.8 678.507 110.8C670.224 110.8 663.632 113.25 658.732 118.15C653.832 122.933 651.382 130.108 651.382 139.675V185H629.507ZM755.164 90.5C762.631 90.5 769.281 91.9583 775.114 94.875C781.064 97.7917 785.731 102.283 789.114 108.35C792.497 114.3 794.189 122 794.189 131.45V185H772.314V134.25C772.314 125.967 770.331 119.783 766.364 115.7C762.514 111.617 757.089 109.575 750.089 109.575C744.956 109.575 740.406 110.625 736.439 112.725C732.472 114.825 729.381 117.975 727.164 122.175C725.064 126.258 724.014 131.45 724.014 137.75V185H702.139V91.55H722.964V116.75L719.289 109.05C722.556 103.1 727.281 98.55 733.464 95.4C739.764 92.1333 746.997 90.5 755.164 90.5Z" fill="white"/>
</svg>
