<svg xmlns="http://www.w3.org/2000/svg" width="344" height="340" viewBox="0 0 344 340" fill="none">
<path d="M0 50C0 22.3858 22.3858 0 50 0H344V290C344 317.614 321.614 340 294 340H0V50Z" fill="black"/>
<path d="M235 141C235 124.431 248.431 111 265 111C281.569 111 295 124.431 295 141V241C295 257.569 281.569 271 265 271C248.431 271 235 257.569 235 241V141Z" fill="#FFC961"/>
<path d="M142 82.0769C142 69.3319 152.332 59 165.077 59V59C185.469 59 202 75.531 202 95.9231V195.923C202 208.668 191.668 219 178.923 219V219C158.531 219 142 202.469 142 182.077V82.0769Z" fill="#FFC961"/>
<path d="M49 134.077C49 121.332 59.3319 111 72.0769 111V111C92.469 111 109 127.531 109 147.923V247.923C109 260.668 98.6681 271 85.9231 271V271C65.531 271 49 254.469 49 234.077V134.077Z" fill="#FFC961"/>
</svg>